<?xml version="1.0" standalone="no"?>
<!DOCTYPE svg PUBLIC "-//W3C//DTD SVG 20010904//EN"
 "http://www.w3.org/TR/2001/REC-SVG-20010904/DTD/svg10.dtd">
<svg version="1.0" xmlns="http://www.w3.org/2000/svg"
 width="1800.000000pt" height="1800.000000pt" viewBox="0 0 1800.000000 1800.000000"
 preserveAspectRatio="xMidYMid meet">
<metadata>
Created by potrace 1.14, written by Peter Selinger 2001-2017
</metadata>
<g transform="translate(0.000000,1800.000000) scale(0.100000,-0.100000)"
fill="#000000" stroke="none">
<path d="M7918 10955 c-1 -1 -37 -5 -78 -9 -41 -3 -84 -8 -95 -10 -11 -2 -42
-7 -70 -10 -146 -20 -379 -84 -535 -149 -553 -229 -970 -610 -1243 -1134 l-71
-138 -12 70 c-7 39 -28 151 -48 250 -19 99 -38 196 -41 215 -3 19 -8 42 -10
50 -2 8 -7 31 -10 50 -3 19 -12 67 -20 105 -39 200 -57 292 -59 310 -2 11 -6
34 -10 50 -3 17 -8 41 -11 55 -13 71 -17 89 -26 130 l-10 45 -818 0 -819 0
-58 -105 c-33 -57 -74 -131 -92 -165 -19 -33 -42 -73 -52 -90 -10 -16 -31 -55
-48 -85 -16 -30 -64 -115 -106 -189 -42 -73 -76 -135 -76 -137 0 -1 -20 -37
-45 -78 -25 -42 -45 -79 -45 -81 0 -3 -11 -22 -24 -43 -12 -20 -37 -64 -55
-97 -18 -33 -36 -67 -42 -75 -9 -15 -90 -158 -151 -270 -17 -30 -57 -100 -88
-155 -31 -55 -68 -120 -82 -145 -26 -47 -152 -271 -185 -330 -11 -19 -154
-273 -318 -565 -163 -291 -306 -546 -317 -565 -32 -55 -48 -83 -155 -275 -56
-99 -140 -250 -188 -335 -48 -85 -99 -175 -113 -200 -13 -25 -40 -71 -58 -103
-19 -32 -32 -62 -30 -65 2 -4 334 -7 738 -6 l733 1 30 54 c17 30 49 88 72 129
49 90 313 573 356 650 16 30 41 75 54 100 13 25 34 63 46 85 13 22 41 74 64
115 22 41 49 91 60 110 25 44 42 76 315 575 253 462 274 500 331 605 50 93 55
99 61 69 6 -26 8 -36 31 -174 8 -49 16 -99 19 -110 2 -11 7 -40 11 -65 4 -25
9 -54 11 -64 2 -11 20 -114 39 -230 20 -116 38 -222 41 -236 2 -14 7 -41 9
-60 3 -19 10 -55 15 -80 9 -48 20 -107 27 -155 2 -16 8 -52 13 -80 5 -27 11
-61 14 -75 2 -14 7 -41 10 -60 3 -19 8 -48 11 -65 3 -16 14 -84 25 -150 19
-113 23 -134 35 -202 3 -16 10 -55 15 -88 5 -33 12 -71 14 -85 3 -14 10 -54
16 -90 6 -36 13 -76 16 -90 2 -14 11 -65 19 -115 8 -49 16 -99 19 -110 2 -11
7 -39 11 -62 4 -24 12 -43 18 -44 16 -1 1438 -1 1455 0 13 1 11 42 -2 82 -3 8
-7 30 -10 49 -3 19 -10 59 -16 89 -5 29 -10 56 -10 59 0 2 15 -7 33 -21 55
-42 214 -130 307 -171 99 -43 284 -106 355 -122 6 -1 28 -6 50 -12 44 -12 70
-17 165 -32 36 -6 76 -13 90 -15 174 -32 687 -25 874 11 11 2 38 6 61 9 125
18 354 86 515 152 189 78 421 213 570 332 24 20 58 47 75 60 53 43 279 275
305 314 14 20 30 37 36 37 5 0 19 -19 31 -42 62 -127 283 -381 423 -486 30
-23 60 -45 65 -50 6 -4 39 -26 75 -48 261 -161 591 -268 935 -301 44 -4 175
-8 290 -8 260 0 413 15 595 57 342 79 691 255 984 496 l79 65 -7 -48 c-4 -26
-9 -57 -12 -68 -2 -12 -6 -40 -9 -62 -3 -22 -7 -47 -10 -55 -2 -8 -6 -28 -9
-45 -3 -16 -8 -46 -11 -65 -3 -19 -11 -61 -17 -93 -6 -32 -8 -60 -4 -64 3 -3
312 -7 686 -7 l680 -1 6 45 c4 25 8 54 10 65 6 29 12 66 19 105 3 19 8 42 10
50 2 8 6 31 9 52 3 20 19 112 35 205 17 92 33 184 36 203 9 51 75 431 80 460
3 14 9 52 15 85 5 33 12 71 15 85 2 13 7 40 10 60 3 20 8 47 10 60 10 49 17
85 20 105 4 31 24 148 29 171 2 12 7 37 10 55 6 35 7 41 31 174 8 44 17 96 20
115 7 43 16 98 21 125 8 40 66 371 75 425 5 30 11 66 14 80 6 31 33 182 41
234 16 106 24 136 37 136 7 1 267 1 579 1 l567 0 5 27 c3 15 8 41 11 57 3 17
7 41 9 55 9 48 25 145 31 180 3 19 7 46 10 60 3 14 7 39 10 55 3 17 7 41 9 55
5 27 65 370 71 410 3 14 9 49 15 79 5 29 10 61 10 70 0 15 -147 16 -1753 17
l-1752 1 -89 26 c-75 23 -205 52 -321 72 -121 20 -518 28 -655 13 -114 -13
-134 -16 -180 -23 -102 -15 -302 -67 -408 -104 -157 -56 -360 -150 -434 -202
-14 -11 -29 -19 -33 -19 -4 0 -40 -22 -80 -49 -229 -154 -378 -287 -549 -490
-62 -73 -72 -81 -81 -65 -32 56 -144 217 -184 263 -258 305 -596 505 -1046
621 -89 23 -202 43 -370 66 -37 5 -542 14 -547 9z m4257 -1089 c209 -16 444
-136 575 -293 24 -29 47 -53 50 -53 3 0 64 56 135 125 126 121 131 124 175
125 58 1 424 1 513 1 65 -1 67 -2 62 -23 -3 -13 -7 -36 -10 -53 -3 -16 -16
-95 -31 -175 -14 -80 -27 -154 -29 -165 -3 -18 -11 -67 -21 -120 -2 -11 -13
-72 -24 -135 -30 -178 -49 -287 -55 -312 -3 -13 -7 -39 -10 -58 -2 -19 -7 -48
-10 -65 -19 -99 -25 -134 -29 -165 -3 -19 -8 -46 -11 -60 -3 -14 -7 -38 -9
-55 -2 -16 -11 -68 -20 -115 -8 -47 -18 -98 -21 -115 -2 -16 -10 -57 -15 -90
-17 -95 -18 -101 -50 -285 -17 -96 -33 -188 -36 -205 -3 -16 -7 -37 -9 -45 -2
-8 -6 -33 -9 -55 -4 -22 -8 -51 -11 -65 -12 -66 -16 -88 -21 -130 -4 -25 -9
-48 -13 -52 -3 -4 -78 90 -166 209 -88 118 -204 275 -257 347 -54 72 -104 140
-112 151 -8 11 -32 43 -54 72 l-38 51 -60 -57 c-115 -111 -296 -221 -444 -269
-109 -36 -232 -50 -390 -47 -80 2 -158 6 -175 10 -72 15 -154 40 -201 61 -28
13 -54 24 -58 24 -17 0 -159 105 -201 149 -156 161 -238 384 -237 646 1 547
335 1052 812 1225 109 40 174 55 310 69 66 7 81 6 205 -3z m-3940 -12 c137
-14 290 -74 400 -157 154 -115 271 -314 305 -517 45 -262 -4 -583 -130 -846
-74 -156 -130 -236 -256 -360 -158 -156 -324 -244 -549 -290 -86 -18 -254 -23
-365 -11 -499 51 -790 478 -713 1047 23 172 74 356 127 459 9 17 16 32 15 33
-3 5 86 148 124 201 33 47 141 163 188 202 45 38 170 117 232 147 107 52 223
81 402 101 35 4 135 0 220 -9z"/>
</g>
</svg>
